<!DOCTYPE svg PUBLIC "-//W3C//DTD SVG 1.1//EN" "http://www.w3.org/Graphics/SVG/1.1/DTD/svg11.dtd">
<!-- Uploaded to: SVG Repo, www.svgrepo.com, Transformed by: SVG Repo Mixer Tools -->
<svg fill="#FFFFFF" height="800px" width="800px" version="1.1" id="Capa_1" xmlns="http://www.w3.org/2000/svg" xmlns:xlink="http://www.w3.org/1999/xlink" viewBox="0 0 408.58 408.58" xml:space="preserve" stroke="#FFFFFF">
<g id="SVGRepo_bgCarrier" stroke-width="0"/>
<g id="SVGRepo_tracerCarrier" stroke-linecap="round" stroke-linejoin="round"/>
<g id="SVGRepo_iconCarrier"> <path d="M61.747,109.523v38.633c0,4.971-4.029,9-9,9s-9-4.029-9-9v-38.633c0-4.971,4.029-9,9-9S61.747,104.552,61.747,109.523z M89.733,257.62H43.904c-4.971,0-9,4.029-9,9s4.029,9,9,9h45.829c4.971,0,9-4.029,9-9S94.704,257.62,89.733,257.62z M89.733,289.945 H69.238c-4.971,0-9,4.029-9,9s4.029,9,9,9h20.495c4.971,0,9-4.029,9-9S94.704,289.945,89.733,289.945z M86.591,114.783 c-4.971,0-9,4.029-9,9v24.373c0,4.971,4.029,9,9,9s9-4.029,9-9v-24.373C95.591,118.812,91.562,114.783,86.591,114.783z M168.1,245.453c0,4.971,4.029,9,9,9h10.125c4.971,0,9-4.029,9-9s-4.029-9-9-9H177.1C172.129,236.453,168.1,240.482,168.1,245.453z M348.037,310.777h-0.023c-4.971,0-8.988,4.029-8.988,9s4.041,9,9.012,9s9-4.029,9-9S353.008,310.777,348.037,310.777z M285.847,319.776c0,4.971-4.029,9-9,9h-51.968c-4.138,19.104-21.171,33.457-41.494,33.457c-20.843,0-38.227-15.096-41.789-34.93 c-7.212-2.284-13.16-7.098-16.355-13.521c-1.599-3.205-2.411-6.624-2.411-10.155v-60.013c0-4.971,4.029-9,9-9s9,4.029,9,9v60.013 c0,0.718,0.176,1.435,0.522,2.13c0.307,0.616,0.764,1.242,1.358,1.833c5.25-17.489,21.498-30.269,40.675-30.269 c20.321,0,37.354,14.354,41.494,33.454h51.968C281.817,310.776,285.847,314.805,285.847,319.776z M207.839,319.777 c0-13.484-10.97-24.455-24.454-24.455c-13.418,0-24.348,10.862-24.456,24.254c0.002,0.112,0.002,0.225-0.001,0.338 c0.075,13.422,11.018,24.319,24.457,24.319C196.869,344.233,207.839,333.262,207.839,319.777z M120.431,100.523 c-4.971,0-9,4.029-9,9v38.633c0,4.971,4.029,9,9,9s9-4.029,9-9v-38.633C129.431,104.552,125.401,100.523,120.431,100.523z M408.541,285.073l-0.023,5.141c-0.019,3.783-0.039,8.099-0.039,13.414c0,10.763-7.741,20.082-18.655,23.626 c-3.543,19.856-20.938,34.979-41.798,34.979c-23.411,0-42.457-19.046-42.457-42.456s19.046-42.455,42.457-42.455 c19.15,0,35.379,12.742,40.652,30.193c1.129-1.144,1.801-2.493,1.801-3.888c0-5.35,0.021-9.693,0.039-13.501l0.023-5.135 c0.033-7.386,0.078-17.502-0.027-22.224c-0.074-3.286-0.163-5.981-0.393-8.313H251.663c-3.229,0-10.794,0-33.941-22.876 c-7.053-6.97-21.072-21.803-23.649-28.05c-1.896-4.595,0.292-9.856,4.887-11.752c4.528-1.873,9.696,0.227,11.663,4.678 c1.224,2.193,8.542,11.172,19.149,21.724c13.359,13.289,20.458,17.593,22.392,18.276h127.842c-2.894-2.775-6.607-6.065-11.376-10.29 c-2.478-2.195-5.198-4.606-8.187-7.288c-2.182-1.956-4.354-4.033-6.457-6.041c-3.058-2.922-6.219-5.942-9.511-8.699 c-2.907-2.436-5.66-4.753-8.277-6.958c-33.4-28.123-42.377-35.682-70.545-35.682H203.52c-4.971,0-9-4.029-9-9s4.029-9,9-9h62.133 c34.736,0,48.613,11.685,82.138,39.913c2.607,2.194,5.349,4.503,8.243,6.928c3.742,3.135,7.12,6.362,10.387,9.483 c2.094,2,4.071,3.889,6.043,5.658c2.959,2.655,5.651,5.04,8.103,7.213c21.571,19.112,27.369,24.249,27.944,49.673 C408.62,267.33,408.576,277.167,408.541,285.073z M372.482,319.684c-0.051-13.441-11.003-24.362-24.457-24.362 c-13.485,0-24.457,10.971-24.457,24.455c0,13.485,10.972,24.456,24.457,24.456c13.479,0,24.446-10.961,24.457-24.438 C372.482,319.758,372.482,319.721,372.482,319.684z M118.505,218.771c0,4.971-4.029,9-9,9H63.676c-4.971,0-9-4.029-9-9s4.029-9,9-9 h13.915v-15.327H9c-4.971,0-9-4.029-9-9V55.347c0-4.971,4.029-9,9-9h155.177c4.971,0,9,4.029,9,9v130.097c0,4.971-4.029,9-9,9 H95.591v15.327h13.914C114.476,209.771,118.505,213.8,118.505,218.771z M155.177,176.444V64.347H18v112.097H155.177z M183.395,310.777h-0.021c-4.971,0-8.989,4.029-8.989,9s4.04,9,9.011,9s9-4.029,9-9S188.365,310.777,183.395,310.777z"/> </g>
</svg>