<svg xmlns="http://www.w3.org/2000/svg" width="34" height="34" viewBox="0 0 34 34">
  <g id="Grupo_49" data-name="Grupo 49" transform="translate(-38 -62)">
    <rect id="Rectángulo_33" data-name="Rectángulo 33" width="34" height="34" transform="translate(38 62)" fill="none"/>
    <g id="SVGRepo_iconCarrier" transform="translate(44 68)">
      <path id="Trazado_89" data-name="Trazado 89" d="M10.233,2h7.32a18.153,18.153,0,0,1,3.86.316,5.309,5.309,0,0,1,2.7,1.359C25.5,5.067,25.786,7.3,25.786,10.233v1.029H11.262V25.787H10.233a18.153,18.153,0,0,1-3.86-.316,5.309,5.309,0,0,1-2.7-1.359C2.285,22.72,2,20.483,2,17.553v-7.32a18.153,18.153,0,0,1,.316-3.86,5.309,5.309,0,0,1,1.359-2.7C5.067,2.285,7.3,2,10.233,2Zm13.54,7.262C23.7,7.009,23.378,5.772,22.7,5.09,21.922,4.316,20.432,4,17.553,4h-7.32C7.354,4,5.864,4.316,5.09,5.09S4,7.354,4,10.233v7.32c0,2.879.316,4.369,1.09,5.143.682.682,1.919,1.008,4.172,1.076V9.262Z" transform="translate(-3 -3)" fill="#01d9ad" opacity="0.1"/>
      <path id="Trazado_90" data-name="Trazado 90" d="M10.233,2h7.32a18.153,18.153,0,0,1,3.86.316,5.309,5.309,0,0,1,2.7,1.359C25.5,5.067,25.786,7.3,25.786,10.233v7.32a18.153,18.153,0,0,1-.316,3.86,5.309,5.309,0,0,1-1.359,2.7c-1.391,1.391-3.627,1.676-6.557,1.676h-7.32a18.153,18.153,0,0,1-3.86-.316,5.309,5.309,0,0,1-2.7-1.359C2.285,22.72,2,20.483,2,17.553v-7.32a18.153,18.153,0,0,1,.316-3.86,5.309,5.309,0,0,1,1.359-2.7C5.067,2.285,7.3,2,10.233,2Zm7.32,21.787c2.879,0,4.369-.316,5.143-1.09s1.09-2.264,1.09-5.143v-7.32c0-2.879-.316-4.369-1.09-5.143S20.432,4,17.553,4h-7.32C7.354,4,5.864,4.316,5.09,5.09S4,7.354,4,10.233v7.32c0,2.879.316,4.369,1.09,5.143s2.264,1.09,5.143,1.09Z" transform="translate(-3 -3)" fill="#01d9ad"/>
      <path id="Trazado_91" data-name="Trazado 91" d="M24.786,10H3A1,1,0,0,1,3,8H24.786a1,1,0,1,1,0,2Z" transform="translate(-3 -1.738)" fill="#01d9ad"/>
      <path id="Trazado_92" data-name="Trazado 92" d="M9,24.524a1,1,0,0,1-1-1V9a1,1,0,0,1,2,0V23.524A1,1,0,0,1,9,24.524Z" transform="translate(-1.738 -1.738)" fill="#01d9ad"/>
    </g>
  </g>
</svg>
