<svg xmlns="http://www.w3.org/2000/svg" width="34" height="34" viewBox="0 0 34 34">
  <g id="Grupo_47" data-name="Grupo 47" transform="translate(-38 -202)">
    <rect id="Rectángulo_35" data-name="Rectángulo 35" width="34" height="34" transform="translate(38 202)" fill="none"/>
    <g id="SVGRepo_iconCarrier" transform="translate(42.998 207)">
      <path id="Trazado_98" data-name="Trazado 98" d="M11.651,16.464A1.6,1.6,0,0,1,10.519,16l-.787-.787L11.147,13.8l.515.515,1.877-1.729,1.355,1.471-2.15,1.981A1.593,1.593,0,0,1,11.651,16.464Z" transform="translate(-0.527 0.381)" fill="#01d9ad" opacity="0.4"/>
      <path id="Trazado_99" data-name="Trazado 99" d="M18.893,26.366H9.211c-2.5,0-4.271-.5-5.4-1.533a5.553,5.553,0,0,1-1.586-3.682v-.013l-.907-9.675a5.683,5.683,0,0,1,1.1-4.631C3.519,5.6,5.346,5,8,5H20.1c2.655,0,4.482.6,5.586,1.832a5.683,5.683,0,0,1,1.1,4.631l-.908,9.688a5.553,5.553,0,0,1-1.586,3.682C23.164,25.864,21.4,26.366,18.893,26.366ZM4.214,20.944a3.512,3.512,0,0,0,.946,2.412c.733.67,2.1,1.009,4.05,1.009h9.683c1.955,0,3.317-.34,4.05-1.009a3.512,3.512,0,0,0,.946-2.412l.909-9.692a3.826,3.826,0,0,0-.6-3.086C23.506,7.392,22.128,7,20.1,7H8c-2.025,0-3.4.392-4.1,1.166a3.826,3.826,0,0,0-.6,3.086l0,.017Z" transform="translate(-2.25 -1.158)" fill="#01d9ad"/>
      <path id="Trazado_100" data-name="Trazado 100" d="M18.683,6.841h-2V5.873A4.294,4.294,0,0,0,16.376,3.7c-.322-.466-1.185-.7-2.566-.7H11.873c-1.381,0-2.245.236-2.566.7A4.294,4.294,0,0,0,9,5.873v.968H7V5.873a5.646,5.646,0,0,1,.661-3.309C8.4,1.5,9.738,1,11.873,1H13.81c2.136,0,3.474.5,4.212,1.565a5.646,5.646,0,0,1,.661,3.309Z" transform="translate(-1.04 -2)" fill="#01d9ad"/>
      <g id="Grupo_41" data-name="Grupo 41" transform="translate(0.447 9.925)" opacity="0.738">
        <path id="Trazado_101" data-name="Trazado 101" d="M12.841,20.883a5.841,5.841,0,1,1,5.841-5.841A5.848,5.848,0,0,1,12.841,20.883Zm0-9.683a3.841,3.841,0,1,0,3.841,3.841A3.846,3.846,0,0,0,12.841,11.2Z" transform="translate(-1.487 -10.2)" fill="#01d9ad"/>
        <path id="Trazado_102" data-name="Trazado 102" d="M16.253,15.165l-.487-1.94a18.7,18.7,0,0,0,6.481-3.034l1.177,1.617A20.69,20.69,0,0,1,16.253,15.165Z" transform="translate(0.198 -10.032)" fill="#01d9ad"/>
        <path id="Trazado_103" data-name="Trazado 103" d="M8.894,15.158A20.845,20.845,0,0,1,2.055,12.1l1.128-1.652a18.852,18.852,0,0,0,6.184,2.771Z" transform="translate(-2.619 -9.975)" fill="#01d9ad"/>
      </g>
    </g>
  </g>
</svg>
