<svg xmlns="http://www.w3.org/2000/svg" width="24" height="24" viewBox="0 0 24 24">
  <g id="Grupo_51" data-name="Grupo 51" transform="translate(-176 -67)">
    <g id="Grupo_26" data-name="Grupo 26" transform="translate(184 70)">
      <g id="Grupo_25" data-name="Grupo 25" transform="translate(0 0)">
        <g id="Grupo_24" data-name="Grupo 24">
          <path id="Trazado_85" data-name="Trazado 85" d="M776.815,6134.01l3.695.009s.015-5.1.026-9.234l2.742.008.348-3.692-2.937-.009,0-1.478a.782.782,0,0,1,.819-.885l2.073.006.009-3.165-2.854-.02a3.6,3.6,0,0,0-3.9,3.86l0,1.669-1.833-.006-.01,3.7,1.847,0C776.829,6128.96,776.815,6134.01,776.815,6134.01Z" transform="translate(-774.995 -6115.55)" fill="#282526"/>
        </g>
      </g>
    </g>
    <rect id="Rectángulo_40" data-name="Rectángulo 40" width="24" height="24" transform="translate(176 67)" fill="none"/>
  </g>
</svg>
