<!DOCTYPE svg PUBLIC "-//W3C//DTD SVG 1.1//EN" "http://www.w3.org/Graphics/SVG/1.1/DTD/svg11.dtd">
<!-- Uploaded to: SVG Repo, www.svgrepo.com, Transformed by: SVG Repo Mixer Tools -->
<svg fill="#FFFFFF" height="800px" width="800px" version="1.1" id="Layer_1" xmlns="http://www.w3.org/2000/svg" xmlns:xlink="http://www.w3.org/1999/xlink" viewBox="0 0 511.998 511.998" xml:space="preserve" stroke="#FFFFFF">
<g id="SVGRepo_bgCarrier" stroke-width="0"/>
<g id="SVGRepo_tracerCarrier" stroke-linecap="round" stroke-linejoin="round"/>
<g id="SVGRepo_iconCarrier"> <g> <g> <g> <path d="M150.453,341.426c-8.337,1.237-20.062,3.908-25.574,12.749c-5.76,9.25-2.244,20.258,1.63,32.418 c6.05,18.97,1.34,47.292-0.247,55.518c-2.628,13.611,2.534,44.766,15.036,59.913c6.81,8.243,14.054,9.975,18.944,9.975 c11.341,0,18.825-2.603,22.878-7.945c3.021-3.994,3.226-8.525,2.355-11.58c-3.371-11.238-4.139-23.509-2.287-36.48 c3.695-25.822,16.555-50.338,27.349-68.821c4.164-7.117,8.806-14.174,13.679-21.197L188.162,311.9 C175.225,328.762,161.794,339.736,150.453,341.426z"/> <path d="M389.891,141.568C381.887,123.75,307.109,8.764,303.926,3.874C302.356,1.459,299.659,0,296.775,0H126.108 c-3.558,0-6.741,2.202-7.987,5.53c-1.254,3.319-0.307,7.074,2.364,9.421c12.1,10.598,13.568,11.486,14.217,11.878 c21.948,13.158,41.301,31.215,60.006,48.674c12.501,11.665,25.421,23.723,39.202,34.466c4.932,3.84,10.095,7.424,15.258,11.008 c5.811,4.036,11.307,7.851,16.495,12.049c18.475,14.925,22.758,24.03,22.383,27.059c-0.154,1.22-2.415,2.381-3.379,2.825 c-35.345,16.299-43.93,38.298-61.039,82.133l-3.063,7.834c-6.349,16.179-13.909,31.078-21.965,43.913l36.352,54.528 c5.905-7.637,12.092-15.206,18.773-22.613c11.119-12.322,23.142-24.329,34.765-35.942c4.787-4.77,9.566-9.549,14.302-14.362 l2.372-2.406c18.68-18.953,37.99-38.562,58.01-56.576l0.802-0.717c6.554-5.897,13.329-11.989,18.893-19.524 C395.105,182.613,397.921,159.462,389.891,141.568z"/> </g> </g> </g> </g>
</svg>