<svg xmlns="http://www.w3.org/2000/svg" width="24" height="24" viewBox="0 0 24 24">
  <g id="Grupo_52" data-name="Grupo 52" transform="translate(-104 -67)">
    <g id="Grupo_23" data-name="Grupo 23" transform="translate(108 71)">
      <path id="Trazado_82" data-name="Trazado 82" d="M683.244,6123.378a4.028,4.028,0,1,0,4.027,4.028A4.028,4.028,0,0,0,683.244,6123.378Zm0,6.643a2.614,2.614,0,1,1,2.615-2.614A2.615,2.615,0,0,1,683.244,6130.021Z" transform="translate(-675.402 -6119.563)" fill="#282526"/>
      <path id="Trazado_83" data-name="Trazado 83" d="M691.093,6121.725a.941.941,0,1,0,.941.941A.941.941,0,0,0,691.093,6121.725Z" transform="translate(-679.064 -6119.009)" fill="#282526"/>
      <path id="Trazado_84" data-name="Trazado 84" d="M689.12,6122.252a5.764,5.764,0,0,0-.365-1.9,4,4,0,0,0-2.294-2.293,5.742,5.742,0,0,0-1.9-.365c-.837-.037-1.1-.047-3.234-.047s-2.4.01-3.233.047a5.743,5.743,0,0,0-1.9.365,4,4,0,0,0-2.294,2.293,5.761,5.761,0,0,0-.365,1.9c-.038.837-.047,1.1-.047,3.232s.009,2.4.047,3.234a5.754,5.754,0,0,0,.365,1.9,4.007,4.007,0,0,0,2.294,2.294,5.768,5.768,0,0,0,1.9.365c.837.038,1.1.047,3.233.047s2.4-.009,3.234-.047a5.767,5.767,0,0,0,1.9-.365,4.006,4.006,0,0,0,2.294-2.294,5.757,5.757,0,0,0,.365-1.9c.038-.837.047-1.1.047-3.234S689.158,6123.089,689.12,6122.252Zm-1.411,6.4a4.341,4.341,0,0,1-.271,1.457,2.6,2.6,0,0,1-1.488,1.488,4.379,4.379,0,0,1-1.457.27c-.827.037-1.075.045-3.169.045s-2.342-.008-3.169-.045a4.379,4.379,0,0,1-1.457-.27,2.6,2.6,0,0,1-1.489-1.488,4.353,4.353,0,0,1-.269-1.457c-.038-.827-.046-1.074-.046-3.17s.008-2.342.046-3.168a4.359,4.359,0,0,1,.269-1.457,2.607,2.607,0,0,1,1.489-1.487,4.34,4.34,0,0,1,1.457-.271c.827-.037,1.075-.045,3.169-.045s2.343.008,3.169.045a4.339,4.339,0,0,1,1.457.271,2.6,2.6,0,0,1,1.488,1.487,4.347,4.347,0,0,1,.271,1.457c.037.826.045,1.075.045,3.168S687.745,6127.828,687.708,6128.655Z" transform="translate(-673.481 -6117.643)" fill="#282526"/>
    </g>
    <rect id="Rectángulo_39" data-name="Rectángulo 39" width="24" height="24" transform="translate(104 67)" fill="none"/>
  </g>
</svg>
