<svg xmlns="http://www.w3.org/2000/svg" width="32" height="32" viewBox="0 0 32 32">
  <g id="SVGRepo_iconCarrier" transform="translate(-0.315 -0.315)">
    <rect id="view-box" width="32" height="32" transform="translate(0.315 0.315)" fill="none"/>
    <path id="Shape" d="M7.023,21.375a.916.916,0,0,1,0-1.832H17.771a1.665,1.665,0,0,0,1.771-1.527V3.359a1.665,1.665,0,0,0-1.771-1.527H7.023A.916.916,0,0,1,7.023,0H17.771a3.485,3.485,0,0,1,3.6,3.359V18.016a3.485,3.485,0,0,1-3.6,3.359Zm1.8-5.154a.916.916,0,0,1,0-1.3L12.139,11.6H.916a.916.916,0,0,1,0-1.832H12.14L8.818,6.45a.916.916,0,0,1,1.295-1.295L15,10.041l.016.016.006.007.009.01.009.01v.006l.01.011h0l.01.012h0l.01.013h0l.01.013h0l.01.013h0l.009.013v.006l.007.012v.037l.007.013h0l.01.018h0a.917.917,0,0,1-.192,1.072l-4.815,4.9a.916.916,0,0,1-1.295,0Z" transform="translate(5.628 5.627)" fill="#01d9ad"/>
  </g>
</svg>
