<svg id="Grupo_43" data-name="Grupo 43" xmlns="http://www.w3.org/2000/svg" xmlns:xlink="http://www.w3.org/1999/xlink" width="15.5" height="19.5" viewBox="0 0 15.5 19.5">
  <defs>
    <clipPath id="clip-path">
      <rect id="Rectángulo_25" data-name="Rectángulo 25" width="15.5" height="19.5" fill="none"/>
    </clipPath>
  </defs>
  <g id="Grupo_43-2" data-name="Grupo 43" clip-path="url(#clip-path)">
    <path id="Trazado_106" data-name="Trazado 106" d="M7.75,19.5C2.028,19.5,0,17.864,0,13.25c0-2.195.371-4.548,3-5.6V4.75a4.75,4.75,0,0,1,9.5,0,.75.75,0,0,1-1.5,0,3.25,3.25,0,0,0-6.5,0v2.5A15.047,15.047,0,0,1,7.775,7a14.867,14.867,0,0,1,4.158.453c3.147.947,3.567,3.461,3.567,5.8,0,4.614-2.029,6.25-7.75,6.25M3.95,8.9c-1.809.55-2.45,1.69-2.45,4.347,0,3.5.944,4.75,6.25,4.75S14,16.755,14,13.25c0-2.664-.646-3.8-2.467-4.352a13.794,13.794,0,0,0-3.758-.4,13.7,13.7,0,0,0-3.825.4" fill="#fff"/>
  </g>
</svg>
