<svg xmlns="http://www.w3.org/2000/svg" width="34" height="34" viewBox="0 0 34 34">
  <g id="Grupo_45" data-name="Grupo 45" transform="translate(-38 -345)">
    <rect id="Rectángulo_37" data-name="Rectángulo 37" width="34" height="34" transform="translate(38 345)" fill="none"/>
    <g id="SVGRepo_iconCarrier" transform="translate(44 346.984)">
      <path id="Path_133" data-name="Path 133" d="M331.894-192H315.7a2.7,2.7,0,0,0-2.7,2.7v26.091h21.593V-189.3A2.7,2.7,0,0,0,331.894-192ZM322-165.009v-5.4h3.6v5.4Zm10.8,0h-5.4v-6.3a.9.9,0,0,0-.9-.9h-5.4a.9.9,0,0,0-.9.9v6.3h-5.4V-189.3a.9.9,0,0,1,.9-.9h16.195a.9.9,0,0,1,.9.9ZM318.4-186.6H322v3.6h-3.6Zm7.2,0h3.6v3.6h-3.6Zm-7.2,7.2H322v3.6h-3.6Zm7.2,0h3.6v3.6h-3.6Z" transform="translate(-312.848 192.152)" fill="#01d9ad"/>
      <path id="Path_133_-_Contorno" data-name="Path 133 - Contorno" d="M315.352-192.5h16.195a2.855,2.855,0,0,1,2.852,2.852V-163.4H312.5v-26.244A2.855,2.855,0,0,1,315.352-192.5Zm18.741,28.79v-25.939a2.55,2.55,0,0,0-2.547-2.547H315.352a2.55,2.55,0,0,0-2.547,2.547v25.939ZM315.352-190.7h16.195a1.053,1.053,0,0,1,1.052,1.052V-165.2h-5.7v-6.45a.748.748,0,0,0-.747-.747h-5.4a.748.748,0,0,0-.747.747v6.45h-5.7v-24.444A1.053,1.053,0,0,1,315.352-190.7Zm16.942,25.192v-24.139a.748.748,0,0,0-.747-.747H315.352a.748.748,0,0,0-.747.747v24.139H319.7v-6.145a1.053,1.053,0,0,1,1.052-1.052h5.4a1.053,1.053,0,0,1,1.052,1.052v6.145ZM317.9-187.1h3.9v3.9h-3.9Zm3.6.3H318.2v3.294H321.5Zm3.6-.3H329v3.9h-3.9Zm3.6.3H325.4v3.294h3.294ZM317.9-179.9h3.9v3.9h-3.9Zm3.6.3H318.2v3.294H321.5Zm3.6-.3H329v3.9h-3.9Zm3.6.3H325.4v3.294h3.294Zm-7.2,8.692h3.9v5.7h-3.9Zm3.6.3H321.8v5.093H325.1Z" transform="translate(-312.5 192.5)" fill="#01d9ad"/>
    </g>
  </g>
</svg>
