<svg xmlns="http://www.w3.org/2000/svg" width="34" height="34" viewBox="0 0 34 34">
  <g id="Grupo_46" data-name="Grupo 46" transform="translate(-38 -273)">
    <rect id="Rectángulo_36" data-name="Rectángulo 36" width="34" height="34" transform="translate(38 273)" fill="none"/>
    <g id="SVGRepo_iconCarrier" transform="translate(42.899 277.9)">
      <path id="Trazado_95" data-name="Trazado 95" d="M7.065,27.11a2.542,2.542,0,0,1-.36-.025l-2.636-.363a3.191,3.191,0,0,1-2.583-2.571l0-.013L1.121,21.5a3.341,3.341,0,0,1,.838-2.556l.009-.01,5.317-5.317a10.079,10.079,0,1,1,7.31,7.3L9.273,26.233A3.265,3.265,0,0,1,7.065,27.11Zm-3.8-3.225a1.385,1.385,0,0,0,1.049,1.055L6.96,25.3a.739.739,0,0,0,.105.007,1.485,1.485,0,0,0,.923-.336l.01-.01,6.086-6.073.519.162A8.258,8.258,0,1,0,17.041,2.907,8.26,8.26,0,0,0,9.155,13.619l.159.518L3.248,20.2A1.59,1.59,0,0,0,2.9,21.246v.007Z" transform="translate(-1.997 -2.007)" fill="#01d9ad"/>
      <path id="Trazado_96" data-name="Trazado 96" d="M9.037,20.91,6.254,18.126l1.273-1.273,2.784,2.784Z" transform="translate(-0.968 1.25)" fill="#01d9ad"/>
      <path id="Trazado_97" data-name="Trazado 97" d="M14.816,12.531a2.716,2.716,0,1,1,2.716-2.716A2.719,2.719,0,0,1,14.816,12.531Zm0-3.631a.916.916,0,1,0,.916.916A.917.917,0,0,0,14.816,8.9Z" transform="translate(0.317 -0.747)" fill="#01d9ad"/>
    </g>
  </g>
</svg>
