<svg xmlns="http://www.w3.org/2000/svg" width="17.566" height="19.575" viewBox="0 0 17.566 19.575">
  <g id="SVGRepo_iconCarrier" transform="translate(0.75 0.75)">
    <path id="Trazado_1" data-name="Trazado 1" d="M17.556,21.825H6.51a3.264,3.264,0,0,1-3.26-3.26c0-1.416.624-3.294,3.595-4.2a17.5,17.5,0,0,1,4.943-.563h.492a17.5,17.5,0,0,1,4.943.563c2.971.91,3.594,2.788,3.594,4.2A3.264,3.264,0,0,1,17.556,21.825ZM11.787,15.3a16.181,16.181,0,0,0-4.5.5A4.374,4.374,0,0,0,5.438,16.8a2.376,2.376,0,0,0-.688,1.762,1.762,1.762,0,0,0,1.76,1.76H17.556a1.762,1.762,0,0,0,1.76-1.76,2.376,2.376,0,0,0-.688-1.762A4.375,4.375,0,0,0,16.783,15.8a16.18,16.18,0,0,0-4.5-.5h-.492Zm.246-3.515A4.767,4.767,0,1,1,16.8,7.017,4.772,4.772,0,0,1,12.033,11.783Zm0-8.033A3.267,3.267,0,1,0,15.3,7.017,3.27,3.27,0,0,0,12.033,3.75Z" transform="translate(-4 -3)" fill="#fff"/>
  </g>
</svg>
